<svg id="Layer_5" enable-background="new 0 0 64 64" height="512" viewBox="0 0 64 64" width="512" xmlns="http://www.w3.org/2000/svg"><path d="m17.071 40.862c-.656-.047-1.309-.106-1.955-.176l-.216 1.988c.67.073 1.347.134 2.029.183z"/><path d="m13.176 40.432c-.652-.099-1.294-.211-1.924-.337l-.393 1.961c.66.132 1.333.25 2.016.354z"/><path d="m9.353 39.663c-.639-.164-1.26-.343-1.861-.538l-.616 1.903c.64.207 1.301.397 1.981.572z"/><path d="m14.9 58.674c.67.073 1.347.134 2.029.183l.143-1.995c-.656-.047-1.309-.106-1.955-.176z"/><path d="m6.875 57.029c.64.207 1.301.397 1.981.572l.496-1.938c-.639-.164-1.26-.343-1.861-.538z"/><path d="m10.859 58.055c.66.132 1.333.25 2.016.354l.301-1.978c-.652-.099-1.294-.211-1.924-.337z"/><path d="m31.091 50.055-.393-1.961c-.629.126-1.272.238-1.924.337l.301 1.978c.683-.104 1.356-.222 2.016-.354z"/><path d="m27.05 50.674-.217-1.988c-.646.07-1.298.129-1.955.176l.143 1.995c.682-.049 1.359-.11 2.029-.183z"/><path d="m35.075 49.029-.616-1.903c-.601.195-1.222.374-1.861.538l.496 1.938c.679-.176 1.341-.367 1.981-.573z"/><path d="m21 35c1.433 0 14-.112 14-4s-12.567-4-14-4-14 .112-14 4 12.567 4 14 4zm0-6c6.929 0 11.228 1.233 11.945 2-.717.767-5.016 2-11.945 2s-11.228-1.233-11.945-2c.717-.767 5.016-2 11.945-2z"/><path d="m57.506 36.74c4.032-.897 5.494-4.018 5.494-6.74 0-5.205-1.591-8.181-2.996-10.806-1.075-2.011-2.004-3.748-2.004-6.194v-1.461l-1.362.529c-.096.037-1.819.716-3.347 1.984-.545-1.863-1.324-3.03-2.049-4.116-1.153-1.727-2.242-3.358-2.242-7.936v-1h-1c-.103 0-9.675.141-10.876 11.553-.338-.245-.566-.385-.609-.41l-1.515-.909v1.766c0 3.112-.914 4.056-2.178 5.361-1.08 1.116-2.393 2.494-3.157 5.399-2.743-.502-5.731-.76-8.665-.76-9.695 0-20 2.804-20 8v24c0 5.196 10.305 8 20 8 6.802 0 13.899-1.382 17.532-4h24.468v-20h-6.97c.623-.615 1.132-1.369 1.476-2.26zm-16.506 10.26h6v4h-6zm8 0h6v4h-6zm-8-2v-5.016c.824.613 1.841.991 2.968 1.008v.008h1.032v4zm2.951-6c-1.627 0-2.951-1.324-2.951-2.951 0-.513.134-1.02.389-1.464l2.611-4.569 2.611 4.569c.255.445.389.951.389 1.464 0 1.627-1.324 2.951-3.049 2.951zm-2.951 16v-2h4v4h-4.559c.359-.622.559-1.287.559-2zm6-2h6v4h-6zm10-6h4v4h-4zm-10-2v-4h6v4zm-12.741-25.248c1.101-1.137 2.233-2.307 2.61-4.836 1.327 1.182 3.131 3.3 3.131 6.084h2c0-2.965-1.527-5.26-2.971-6.774.306-8.881 5.717-10.744 7.992-11.126.173 4.375 1.384 6.188 2.558 7.947 1.245 1.864 2.421 3.625 2.421 8.953h2c0-1.4-.084-2.587-.225-3.616.673-.788 1.585-1.418 2.33-1.837.299 2.157 1.196 3.833 2.136 5.59 1.356 2.536 2.759 5.159 2.759 9.863 0 1.096-.328 3.503-3.025 4.524.01-.173.025-.344.025-.524 0-2.276-1.298-3.697-2.553-5.071-1.259-1.377-2.447-2.678-2.447-4.929v-1.869l-1.555 1.037c-.352.235-3.445 2.368-3.445 4.832h2c0-.641.584-1.421 1.237-2.071.493 1.897 1.667 3.183 2.733 4.349 1.134 1.242 2.03 2.222 2.03 3.722 0 3.436-2.592 5-5 5h-2.999c.619-.826.999-1.841.999-2.951 0-.86-.226-1.71-.652-2.457l-4.348-7.608-3 5.25v-.234c0-3.241-4.01-5.551-9.38-6.831.63-2.331 1.649-3.393 2.639-4.417zm-13.259 5.248c10.608 0 18 3.162 18 6s-7.392 6-18 6-18-3.162-18-6 7.392-6 18-6zm-18 9.64c3.463 2.851 10.892 4.36 18 4.36s14.537-1.509 18-4.36v4.36c0 2.838-7.392 6-18 6s-18-3.162-18-6zm0 8c3.463 2.851 10.892 4.36 18 4.36s14.537-1.509 18-4.36v4.36c0 2.838-7.392 6-18 6s-18-3.162-18-6zm0 12.36v-4.36c3.463 2.851 10.892 4.36 18 4.36s14.537-1.509 18-4.36v4.36c0 2.838-7.392 6-18 6s-18-3.162-18-6zm52 2v-4h6v4zm6-12h-6v-4h6z"/><path d="m46.626 6.78-1.25-1.561c-.028.022-.699.562-1.551 1.522l1.496 1.328c.729-.823 1.299-1.285 1.305-1.289z"/><path d="m42.506 12.854-1.903-.614c-.226.699-.39 1.41-.488 2.115l1.98.276c.083-.59.221-1.188.411-1.777z"/><path d="m44.163 9.547-1.647-1.134c-.412.598-.778 1.216-1.091 1.836l1.787.898c.27-.538.591-1.077.951-1.6z"/><path d="m20 30h2v2h-2z"/><path d="m24 30h2v2h-2z"/><path d="m16 30h2v2h-2z"/></svg>